<?xml version="1.0" encoding="UTF-8"?><svg id="Layer_2" xmlns="http://www.w3.org/2000/svg" viewBox="0 0 87.67 30.69"><g id="Layer_1-2"><path d="M38.85,30.28V8.39h2.99v21.89h-2.99Z" style="fill:#1b181c; stroke-width:0px;"/><path d="M63.37,30.58h-.94l-5.21-15.09-4.87,15.09h-.94l-6.9-22.19h3.11l4.39,15.28,4.81-15.28h1.05l4.75,15.25,4.47-15.25h3.11l-6.81,22.19Z" style="fill:#1b181c; stroke-width:0px;"/><path d="M72.31,8.39h2.99v14.99c0,1.33.42,2.43,1.27,3.29.85.86,1.97,1.29,3.36,1.29,1.47,0,2.63-.42,3.48-1.25.85-.84,1.27-1.97,1.27-3.41v-14.91h2.99v15.22c0,2.21-.69,3.94-2.07,5.18-1.38,1.24-3.26,1.86-5.64,1.86s-4.34-.61-5.66-1.82c-1.33-1.21-1.99-2.96-1.99-5.23v-15.21Z" style="fill:#1b181c; stroke-width:0px;"/><rect x="8.12" y="8.12" width="22.56" height="22.56" style="fill:#ffd405; stroke-width:0px;"/><path d="M8.12,0C3.64,0,0,3.63,0,8.12s3.64,8.12,8.12,8.12h8.12v-8.12C16.25,3.63,12.61,0,8.12,0Z" style="fill:#deda07; stroke-width:0px;"/><rect x="8.12" y="8.12" width="8.12" height="8.12" style="fill:#79b52a; stroke-width:0px;"/></g></svg>